inDegrees=no
num_controls=7
num_derivatives=13
num_iterations=34
num_multipliers=7
num_parameters=0
num_slacks=7
num_states=26
objective=0.426641
objective_accelerations=0.058467
objective_balance=0.001148
objective_effort=0.015588
objective_height=0.345401
objective_ligament=0.006036
solver_duration=521.537500
status=Solve_Succeeded
success=true
DataType=double
version=3
OpenSimVersion=4.5
endheader
time	/jointset/ground_pelvis/pelvis_tilt/value	/jointset/ground_pelvis/pelvis_tx/value	/jointset/ground_pelvis/pelvis_ty/value	/jointset/hip_l/hip_flexion_l/value	/jointset/hip_l/hip_adduction_l/value	/jointset/hip_l/hip_rotation_l/value	/jointset/back/lumbar_extension/value	/jointset/patellofemoral_l/patellar_flexion_l/value	/jointset/knee_l/knee_flexion_l/value	/jointset/knee_l/knee_adduction_l/value	/jointset/knee_l/knee_rotation_l/value	/jointset/ankle_l/ankle_angle_l/value	/jointset/subtalar_l/subtalar_angle_l/value	/jointset/ground_pelvis/pelvis_tilt/speed	/jointset/ground_pelvis/pelvis_tx/speed	/jointset/ground_pelvis/pelvis_ty/speed	/jointset/hip_l/hip_flexion_l/speed	/jointset/hip_l/hip_adduction_l/speed	/jointset/hip_l/hip_rotation_l/speed	/jointset/back/lumbar_extension/speed	/jointset/patellofemoral_l/patellar_flexion_l/speed	/jointset/knee_l/knee_flexion_l/speed	/jointset/knee_l/knee_adduction_l/speed	/jointset/knee_l/knee_rotation_l/speed	/jointset/ankle_l/ankle_angle_l/speed	/jointset/subtalar_l/subtalar_angle_l/speed	/forceset/tau_hip_flexion_l	/forceset/tau_hip_adduction_l	/forceset/tau_hip_rotation_l	/forceset/tau_knee_flexion_l	/forceset/tau_ankle_angle_l	/forceset/tau_subtalar_angle_l	/forceset/tau_lumbar_extension	lambda_cid13_p0	lambda_cid13_p1	lambda_cid13_p2	lambda_cid13_p3	lambda_cid13_p4	lambda_cid13_p5	lambda_cid14_p0	/jointset/ground_pelvis/pelvis_tilt/accel	/jointset/ground_pelvis/pelvis_tx/accel	/jointset/ground_pelvis/pelvis_ty/accel	/jointset/hip_l/hip_flexion_l/accel	/jointset/hip_l/hip_adduction_l/accel	/jointset/hip_l/hip_rotation_l/accel	/jointset/back/lumbar_extension/accel	/jointset/patellofemoral_l/patellar_flexion_l/accel	/jointset/knee_l/knee_flexion_l/accel	/jointset/knee_l/knee_adduction_l/accel	/jointset/knee_l/knee_rotation_l/accel	/jointset/ankle_l/ankle_angle_l/accel	/jointset/subtalar_l/subtalar_angle_l/accel	gamma_cid13_p0	gamma_cid13_p1	gamma_cid13_p2	gamma_cid13_p3	gamma_cid13_p4	gamma_cid13_p5	gamma_cid14_p0
1	-0.4516488929552804	-0.002023547208572218	0.5934824684394934	1.702156141701654	-0.3476703639593672	0.1492435327363347	-0.4362137936092363	1.511076605807936	1.511076605807888	0.04644715207424409	-0.1743045855511391	0.4349765023623411	0.2471906177353274	-0.1329091858013934	0.006024788499027625	0.04462730762323418	-0.01658944347191302	-0.004920696249375058	-0.05297425739175331	-0.002344490069153567	-0.1801896663883417	-0.1801896663883486	-0.0235765185285409	-0.0006114475095080419	-0.04677829507817017	-0.03617414543130749	-0.2363426607065371	0.08521647759384175	-0.00860765726031581	-0.2968706693695974	-0.009279048790221527	-0.0201311428784078	0.2070183683386554	-39.55655266850944	26.94419536777953	-17.45561279835901	2.228804033350597	-542.9372611264741	-27.61718369542868	-0.02361909236397917	1.437431497145816	0.2849441398788939	2.021074625038267	-6.691595219326565	-0.2798313471013238	-1.609568675560718	-0.03542281343247912	-5.592091339803444	-5.592091339803449	-0.8691006834435073	-0.03143564948628084	-0.8238472576408157	-0.9367391077426517	-7.678207067860072e-09	-1.203764830175569e-07	-4.473143964625098e-08	-7.703656611250153e-09	-8.329899022202795e-09	-1.334008645042453e-07	2.612665277871736e-10
1.01	-0.452906839011625	-0.001949029431200135	0.594029561700305	1.701656793556036	-0.3477329793409857	0.1486348841850899	-0.4362378389399216	1.508995460956781	1.508995460956762	0.04616725352225187	-0.174310868343344	0.4344674660648697	0.2467829866007878	-0.1186693722075152	0.008887489742888062	0.06478070019119082	-0.08326933148287115	-0.007597224343433458	-0.06874722395673075	-0.002441786109341941	-0.2360350903869671	-0.2360350903869649	-0.03240032100620857	-0.0006453416979519265	-0.05504398235252728	-0.04534642118610357	-0.2368406566670625	0.08517123140996667	-0.008600869965911702	-0.2957426690846601	-0.009863480683433904	-0.0200586892453319	0.2073157076517881	-39.69113386695056	26.864405301833	-17.36077920674339	2.162972901054879	-542.760467170972	-27.56070327556828	-0.02363810745285773	1.418853473968553	0.2882385065798236	2.010872435325434	-6.654558392473496	-0.2607787982417218	-1.559935516966064	0.006535496073681264	-5.580135852236415	-5.580135852235024	-0.8886029301022481	0.01057781885325251	-0.8301908084180106	-0.9065911985547428	-8.51770695736234e-09	-1.532710617295074e-07	-5.92011276945777e-08	-1.505197310514154e-08	-1.238500557043287e-08	-1.634843198778711e-07	-2.912869370614974e-10
1.02	-0.4540220674953484	-0.001845623563401328	0.5947778690593268	1.700490971970187	-0.3478222030550837	0.1478687509941866	-0.4362621735318835	1.506355988281171	1.506355988281199	0.04579920036543943	-0.1743175012529421	0.4338753206254371	0.2462838088308591	-0.1043656712752381	0.01180240658437249	0.08487012726525274	-0.1498841315135407	-0.01024236274482779	-0.08447118532169909	-0.002402342334068774	-0.2918552312793666	-0.2918552312793554	-0.04120743949083228	-0.0006814709913248765	-0.06340012347027914	-0.05448347250916369	-0.2373386526277108	0.08512598522604878	-0.008594082671569849	-0.294614668799726	-0.0104479125766364	-0.01998623561231925	0.2076130469647845	-39.82763424670794	26.78198167791138	-17.26213354695812	2.086650249032639	-542.6942506519434	-27.504965156748	-0.02365874306078221	1.450208964825514	0.2953872594037126	2.008281526259337	-6.678577623268861	-0.2735534085684705	-1.599767635558867	-0.008074850339354117	-5.587034718558307	-5.587034718558312	-0.8657638848347031	-0.03188267047198026	-0.8419380263197269	-0.9296942213953697	-9.462176232054224e-09	-1.844290482143369e-07	-7.232404688439582e-08	-2.190031364585927e-08	-1.628542583460554e-08	-1.896218835551664e-07	-1.144646842327112e-09
1.03	-0.4549939121765305	-0.001712765456474238	0.595726652179466	1.698659507989668	-0.3479376898028008	0.146945614055033	-0.4362852494330317	1.503158586168268	1.503158586168308	0.04534327452947389	-0.1743245139912747	0.4331991237581423	0.2456934873815953	-0.08998999750115565	0.01478215809286179	0.1048660571061745	-0.2163802223023817	-0.01284733366065698	-0.100144073063366	-0.002171858178936844	-0.3476065282403317	-0.3476065282403169	-0.04996944604587152	-0.0007226772465819598	-0.07185793227021535	-0.06357101731769806	-0.2377108741905558	0.08510345818869149	-0.008571492385471172	-0.2931762381477966	-0.01109957349964678	-0.01988724039888063	0.2078506592401488	-39.95891581715705	26.67103583315661	-17.14057200564102	1.997074332796333	-542.3364090485453	-27.42761539003508	-0.02368627279542536	1.433234966570097	0.301204800213169	1.992178704102381	-6.630860363532166	-0.2528038756797292	-1.549243874606649	0.04475700807213741	-5.566377320397559	-5.566377320397013	-0.8801970164119332	0.009490340737890984	-0.8505166085315587	-0.8967698858432005	-1.040771662292151e-08	-2.155693143703182e-07	-8.543322353484141e-08	-2.874355239113643e-08	-2.018426766730825e-08	-2.157191830314788e-07	-2.001076201066371e-09
1.04	-0.4558216024434035	-0.001549722693733889	0.5968747805962333	1.696163935989873	-0.3480789932481962	0.1458661093322312	-0.4363047911006244	1.499404231058648	1.499404231058713	0.04479997303285683	-0.1743319928033868	0.4324377859425081	0.2450125934291939	-0.07553478841224776	0.01783933774702396	0.1247391865908938	-0.2827057353648348	-0.01540570228006302	-0.1157447420504744	-0.00169549563847202	-0.4032458306225763	-0.403245830622558	-0.0586825716238495	-0.0007746857502178049	-0.08042831313819175	-0.07259797313665982	-0.2380830957535042	0.0850809311513032	-0.008548902099338668	-0.2917378074958655	-0.01175123442264733	-0.01978824518548732	0.2080882715154	-40.09239718343588	26.55754836186092	-17.01526195527097	1.897326945641706	-542.0907855233263	-27.35191567370217	-0.02371550030102136	1.46611602779053	0.3108728885383057	1.983721455018874	-6.6444620779913	-0.2642329492837896	-1.585323884647124	0.0411008267283922	-5.564635802814257	-5.564635802814273	-0.8559876894224353	-0.03404312014758547	-0.8644524399277214	-0.9175764234807399	-1.14568300252155e-08	-2.434950700879014e-07	-9.449973634798082e-08	-3.481055224156709e-08	-2.365121366721793e-08	-2.34633767640731e-07	-3.592115946088455e-09
1.05	-0.4565044738284896	-0.001355665535668122	0.5982208976999409	1.69300632030765	-0.3482455999280845	0.1446309284331613	-0.4363178339847363	1.495094247175275	1.495094247175284	0.04416996701772159	-0.1743400114712459	0.4315901892794242	0.2442418380384409	-0.06104037793308036	0.02099054902489448	0.1444509233812119	-0.3487526761278599	-0.01790387330813102	-0.1312746775200785	-0.0008202065666806853	-0.4587118456111434	-0.4587118456111544	-0.06730127745145316	-0.0008275184711361862	-0.08910877861718002	-0.08153375116743425	-0.2383852742145276	0.08508009259832368	-0.008513583607896138	-0.2899421393788114	-0.01249303240550713	-0.01966374348027815	0.2083254670991659	-40.2274182649108	26.41576006889713	-16.86545902033721	1.767201963114256	-541.5586444863792	-27.24786903682346	-0.02375115236677951	1.440967508682231	0.3200052895712315	1.959897719853456	-6.575104186528507	-0.240823395634905	-1.53433351965697	0.1246741412417121	-5.531718223330205	-5.531718223334615	-0.8622360707299109	0.009289641950300876	-0.8725224927663571	-0.8786196091624684	-1.250918008411658e-08	-2.713203723542846e-07	-1.034399159162044e-07	-4.08532946265338e-08	-2.710466292235283e-08	-2.533238924103877e-07	-5.206112265681874e-09
1.06	-0.4570424283186417	-0.001129544256391699	0.599763131757315	1.689190176395579	-0.3484368311614671	0.1432409471510828	-0.4363193377390709	1.490230776366726	1.490230776366678	0.04345428913609456	-0.1743485198682912	0.4306552521833767	0.2433823166441222	-0.04655140942581665	0.02425216198915499	0.1639625773241594	-0.4144113813337031	-0.02033061297885635	-0.146704818651281	0.0006123302586163331	-0.513943215657803	-0.5139432156578433	-0.07581694493108442	-0.0008726315914823848	-0.09789639973144804	-0.09035117384967485	-0.2386874526755859	0.08507925404531386	-0.008478265116283152	-0.2881464712617528	-0.0132348303883692	-0.019539241775123	0.2085626626828917	-40.36500833348097	26.27157386017397	-16.71202082101703	1.627250940061438	-541.1405623062224	-27.14660704323974	-0.02378861328540545	1.465027633409732	0.332953225816319	1.943704885544763	-6.566814966554966	-0.2499466778151864	-1.565365016966745	0.1525503774315273	-5.517706814432769	-5.517706814432823	-0.835380019827929	-0.03249920003295756	-0.885883566983638	-0.8939053537738385	-1.347684179664596e-08	-2.963322520597937e-07	-1.065077534004912e-07	-4.616161567373133e-08	-3.048717232682692e-08	-2.670060977089728e-07	-7.488082416689168e-09
1.07	-0.4574357208757568	-0.000870246602451407	0.6014993522427352	1.684719849458736	-0.3486519297282951	0.1416971867447235	-0.4363032868668767	1.484816310046183	1.484816310046165	0.04265405913123931	-0.1743574321096996	0.429631806187944	0.2424352430428497	-0.03213080359294589	0.02762653317593548	0.1832350990226488	-0.4795410392643172	-0.02267317641379001	-0.162019262140854	0.002738344405202611	-0.5688963992267956	-0.5688963992268127	-0.08421259225675247	-0.000906157656202364	-0.1068200189069409	-0.09904114286761441	-0.2388814234468466	0.08511860339961783	-0.008432576071624657	-0.2859725020147882	-0.01415473471618557	-0.01938692130375391	0.2087490859356752	-40.53361324479065	26.10055224740182	-16.53124930150288	1.525647417449634	-540.4103403920542	-27.01535889838511	-0.0238347910833289	1.427018352001659	0.3425433609765142	1.912055880494559	-6.469099911196889	-0.2239981944018987	-1.510308847937935	0.2637019887034696	-5.476074750781271	-5.476074750777752	-0.8392216516698456	0.01172962961429343	-0.8997018010298319	-0.8531177105447362	-1.443999880990025e-08	-3.21194481629086e-07	-1.092632322632919e-07	-5.14308717561539e-08	-3.386590833498927e-08	-2.804219243122881e-07	-9.805583090644015e-09
1.08	-0.4576855191157796	-0.0005766323774698337	0.6034269039588395	1.679601614201636	-0.3488899713330832	0.140001116936866	-0.4362617608435344	1.478853921765421	1.478853921765408	0.04177035974064251	-0.1743665778238654	0.4285183038591206	0.2414019547444487	-0.01785254600904081	0.03111547619741125	0.2022288234608877	-0.5439930453902284	-0.02491922057149543	-0.1771666989498444	0.005707360769021314	-0.6235276077017404	-0.6235276077017333	-0.0925108220917701	-0.0009193261486899184	-0.1159076664103434	-0.1075941132751834	-0.239075394217949	0.08515795275390504	-0.008386887026696963	-0.2837985327678195	-0.01507463904403298	-0.01923460083243588	0.2089355091886255	-40.70523751570121	25.9273218070442	-16.3469985887591	1.414469582387227	-539.7964112558154	-26.88839987836608	-0.02388294652787102	1.436557983616535	0.355867592755376	1.887945433494662	-6.431284605614404	-0.2306428223694455	-1.531963680850111	0.3211508208782328	-5.453311795623267	-5.453311795623168	-0.8158965216978127	-0.02842768558622087	-0.9186892325655622	-0.8665056316995501	-1.612669661796921e-08	-3.42000094646063e-07	-1.115134617381289e-07	-5.435568059336973e-08	-3.74580437625483e-08	-2.874055098975914e-07	-1.216078332602928e-08
